<?xml version="1.0" encoding="UTF-8"?><svg id="Layer_1" xmlns="http://www.w3.org/2000/svg" xmlns:xlink="http://www.w3.org/1999/xlink" viewBox="0 0 1000 336.28"><defs><style>.cls-1{fill:none;}.cls-2{clip-path:url(#clippath);}.cls-3{fill:#041e42;}.cls-4{fill:#06f27b;}.cls-5{fill:#0f1f41;}.cls-6{clip-path:url(#clippath-1);}.cls-7{clip-path:url(#clippath-2);}</style><clipPath id="clippath"><rect class="cls-1" x="19.05" y="97.63" width="500.35" height="116.32"/></clipPath><clipPath id="clippath-1"><rect class="cls-1" x="19.05" y="97.63" width="959.79" height="116.32"/></clipPath><clipPath id="clippath-2"><rect class="cls-1" x="19.05" y="97.63" width="959.79" height="116.32"/></clipPath></defs><g><g><path class="cls-3" d="M551.93,120.57c14-2.01,23.02,1.61,31.3,8.68,.79,.79,.89,1.98,.1,2.78-.89,.89-1.98,1.88-2.78,2.78-.89,.99-1.49,.89-2.58-.1-5.06-4.47-12.2-7.74-18.85-7.74-15.68,0-27.58,13.1-27.58,28.48s11.91,28.67,27.58,28.67c10.92,0,17.86-4.17,17.86-4.17v-13.89h-11.41c-1.09,0-1.88-.79-1.88-1.79v-5.56h20.84v24.61c0,.5-.4,1.29-.79,1.59,0,0-10.12,6.55-24.51,6.55-25.42,0-44.48-25.88-31.77-53.04,4.53-9.69,13.9-16.32,24.48-17.85Z"/><path class="cls-3" d="M596.14,123.2c0-1.09,.99-2.18,2.18-2.18h5.16v67.27c0,1.19-1.09,2.18-2.18,2.18h-5.16V123.2Z"/><path class="cls-3" d="M637.12,143.63c12.7,0,23.02,10.92,23.02,23.82s-10.32,24.11-23.02,24.11-23.02-11.01-23.02-24.11,10.32-23.82,23.02-23.82Zm0,41.28c9.03,0,15.67-7.94,15.67-17.46s-6.65-17.17-15.67-17.17-15.78,7.84-15.78,17.17,6.75,17.46,15.78,17.46Z"/><path class="cls-3" d="M670.27,123.2c0-1.09,.89-2.18,2.08-2.18h5.16v25.5s5.06-2.88,12.7-2.88c13.69,0,21.63,10.42,21.63,23.82s-8.83,24.11-20.54,24.11c-7.04,0-11.61-3.07-14.48-5.85-.36,3.55-2.54,5.96-6.55,4.91V123.2Zm7.24,54.18s4.76,7.54,13,7.54,13.89-8.43,13.89-17.37-5.26-17.26-15.28-17.26c-6.35,0-11.61,2.88-11.61,2.88v24.21Z"/><path class="cls-3" d="M736.85,161.4c4.86,0,9.82,1.49,9.82,1.49,.1-8.43-3.97-12.6-10.52-12.6-5.06,0-8.53,1.98-10.62,2.68-1.19,.5-1.78-.1-2.18-1.19l-.99-2.68c-.4-1.39,.3-1.99,1.39-2.48,2.28-.99,6.45-2.98,12.8-2.98,11.71,0,17.16,6.95,17.16,19.25v27.74c-4.13,1.05-6.3-1.47-6.65-5.12-2.38,2.48-7.24,6.05-14.39,6.05-8.04,0-14.19-5.75-14.19-14.98,0-8.73,6.55-15.18,18.36-15.18Zm-2.88,23.52c5.66,0,10.62-3.18,12.6-6.15v-9.33c-1.49-.79-5.16-1.79-9.72-1.79-6.35,0-11.11,3.08-11.11,8.93,0,4.66,3.17,8.33,8.23,8.33Z"/><path class="cls-3" d="M766.92,123.2c0-1.09,.99-2.18,2.18-2.18h5.16v67.27c0,1.19-1.09,2.18-2.18,2.18h-5.16V123.2Z"/><path class="cls-3" d="M866.55,143.63c12.01,0,20.74,8.83,20.74,20.84,0,.79-.1,1.98-.2,2.78-.1,1.19-1.09,1.98-2.08,1.98h-33.34c.2,7.64,6.65,15.68,14.98,15.68,6.05,0,9.83-2.08,12.4-3.77,1.59-1.09,2.28-1.49,3.47,.3l1.19,1.69c.89,1.39,1.29,1.89-.4,3.18-2.78,2.18-8.83,5.26-16.77,5.26-13.89,0-22.23-10.91-22.23-24.01s8.33-23.91,22.23-23.91Zm13.39,19.74c-.2-6.75-5.56-13.1-13.39-13.1s-13.89,5.95-14.78,13.1h28.18Z"/><path class="cls-3" d="M917.15,143.63c6.85,0,12.4,2.68,16.67,7.54,.89,1.09,.69,2.38-.4,3.27l-1.59,1.49c-1.49,1.29-2.38,.3-3.28-.69-3.17-3.57-6.85-4.96-11.51-4.96-8.73,0-15.67,7.74-15.67,17.26s6.85,17.37,15.38,17.37c6.95,0,9.92-3.57,12.5-6.55,1.29-1.49,2.58-1.09,3.87,.2l.59,.59c.99,.99,1.39,1.98,.59,3.18-3.47,5.06-9.62,9.23-17.27,9.23-13.59,0-23.12-10.12-23.12-23.91s9.92-24.01,23.22-24.01Z"/><path class="cls-3" d="M944.15,123.2c0-1.09,.99-2.18,2.18-2.18h5.16v28.48s5.36-5.85,14.58-5.85c11.41,0,16.57,7.04,16.57,20.44v24.21c0,1.19-1.09,2.18-2.18,2.18h-5.26v-26.39c0-8.73-2.58-13.79-9.62-13.79-8.73,0-14.09,6.55-14.09,6.55v31.45c0,1.19-1.09,2.18-2.18,2.18h-5.16V123.2Z"/></g><path class="cls-3" d="M845.11,121.01h-43.96v6.61h1.68c.07,0,.13,.04,.2,.04h17.26v62.81h7.54v-62.81h17.26c.07,0,.13-.03,.2-.04h1.68v-6.61h-1.88Z"/></g><g class="cls-2"><g id="Artwork_6"><g class="cls-6"><g class="cls-7"><path class="cls-5" d="M304.71,158.99c0-11.49-4.91-21.59-21.49-21.59-8.51,0-15.27,2.39-18.96,4.52l2.7,9.23c3.37-2.13,8.74-3.89,13.82-3.89,8.41-.02,9.79,4.76,9.79,7.83v.72c-18.34-.03-29.92,6.32-29.92,19.25,0,7.9,5.9,15.3,16.16,15.3,6.31,0,11.59-2.52,14.75-6.55h.32s2.09,8.75,13.63,5.41c-.6-3.65-.8-7.54-.8-12.21m-13.69-5.89c0,.93-.09,1.91-.34,2.74-1.06,3.51-4.7,6.48-9.25,6.48-3.79,0-6.81-2.16-6.81-6.71,0-6.96,7.67-8.89,16.4-8.84v6.33Z"/><path class="cls-5" d="M19.05,121.75s11.98,49.09,13.89,57.06c2.23,9.3,6.25,12.72,17.85,10.42l7.48-30.43c1.9-7.57,3.17-12.95,4.39-20.64h.22c.85,7.77,2.08,13.1,3.64,20.67,0,0,3.04,13.82,4.6,21.07,1.57,7.25,5.91,11.83,17.27,9.34l17.83-67.48h-14.39l-6.09,29.17c-1.64,8.49-3.12,15.13-4.27,22.9h-.2c-1.04-7.69-2.36-14.07-4.03-22.34l-6.34-29.73h-15l-6.77,28.98c-1.92,8.81-3.72,15.92-4.86,23.42h-.21c-1.17-7.07-2.73-16-4.41-24.53,0,0-4.03-20.73-5.44-27.88"/><path class="cls-5" d="M147.1,158.99c0-11.49-4.91-21.59-21.48-21.59-8.52,0-15.27,2.39-18.96,4.52l2.7,9.23c3.37-2.13,8.74-3.89,13.83-3.89,8.42-.02,9.79,4.76,9.79,7.83v.72c-18.34-.03-29.92,6.32-29.92,19.25,0,7.9,5.9,15.3,16.16,15.3,6.31,0,11.59-2.52,14.75-6.55h.31s2.1,8.75,13.64,5.41c-.61-3.65-.81-7.54-.81-12.21m-13.69-5.89c0,.93-.08,1.91-.34,2.74-1.06,3.51-4.69,6.48-9.24,6.48-3.79,0-6.81-2.16-6.81-6.71,0-6.96,7.66-8.89,16.39-8.84v6.33Z"/><polyline class="cls-5" points="169.94 174.9 169.94 121.75 156.24 121.75 156.24 189.23 169.94 189.23"/><path class="cls-5" d="M349.22,121.75v49.78c0,6.85,1.29,11.67,4.05,14.61,2.41,2.56,6.38,4.23,11.15,4.23,4.06,0,8.05-.77,9.92-1.47l-.18-10.71c-1.39,.34-3.01,.62-5.2,.62-4.67,0-6.23-2.99-6.23-9.15v-19.04h11.93v-12.91h-11.93v-15.96"/><path class="cls-5" d="M313.85,138.54v50.69h14.13v-25.96c0-1.4,.09-2.62,.31-3.74,1.05-5.44,5.21-8.91,11.18-8.91,1.64,0,2.81,.18,4.07,.36v-13.27c-1.06-.22-1.78-.31-3.11-.31-5.28,0-11.28,3.4-13.79,10.7h-.39v-9.56"/><path class="cls-5" d="M179.54,138.54v50.69h13.77v-29.73c0-1.39,.16-2.87,.65-4.15,1.14-2.99,3.93-6.5,8.37-6.5,5.56,0,8.16,4.7,8.16,11.48v28.89h13.76v-30.09c0-1.33,.18-2.93,.58-4.11,1.13-3.4,4.13-6.17,8.26-6.17,5.64,0,8.34,4.62,8.34,12.6v27.77h13.77v-29.85c0-15.75-8-21.98-17.02-21.98-4,0-7.15,1-10,2.75-2.4,1.47-4.55,3.56-6.42,6.31h-.2c-2.18-5.46-7.3-9.07-13.97-9.07-8.57,0-12.42,4.34-14.76,8.03h-.2v-6.89"/><path class="cls-5" d="M553.14,120.21c13.83-1.99,22.75,1.59,30.94,8.57,.78,.79,.88,1.96,.1,2.75-.88,.88-1.96,1.86-2.75,2.75-.88,.98-1.47,.88-2.55-.1-5-4.41-12.06-7.65-18.63-7.65-15.49,0-27.26,12.94-27.26,28.15s11.77,28.34,27.26,28.34c10.79,0,17.65-4.12,17.65-4.12v-13.73h-11.28c-1.08,0-1.86-.79-1.86-1.77v-5.49h20.59v24.32c0,.49-.39,1.27-.79,1.57,0,0-10,6.47-24.22,6.47-25.12,0-43.97-25.58-31.4-52.42,4.48-9.57,13.73-16.13,24.19-17.64"/><path class="cls-5" d="M596.83,122.81c0-1.08,.98-2.16,2.16-2.16h5.1v66.49c0,1.18-1.08,2.16-2.16,2.16h-5.1V122.81Z"/><path class="cls-5" d="M637.34,143.01c12.55,0,22.75,10.79,22.75,23.54s-10.2,23.83-22.75,23.83-22.75-10.88-22.75-23.83,10.2-23.54,22.75-23.54m0,40.8c8.92,0,15.49-7.85,15.49-17.26s-6.57-16.97-15.49-16.97-15.59,7.75-15.59,16.97,6.67,17.26,15.59,17.26"/><path class="cls-5" d="M670.1,122.81c0-1.08,.88-2.16,2.06-2.16h5.1v25.2s5-2.84,12.55-2.84c13.53,0,21.38,10.3,21.38,23.54s-8.73,23.83-20.3,23.83c-6.96,0-11.47-3.04-14.32-5.78-.35,3.5-2.51,5.89-6.47,4.85V122.81Zm7.16,53.55s4.71,7.45,12.84,7.45,13.73-8.34,13.73-17.16-5.2-17.06-15.1-17.06c-6.28,0-11.47,2.84-11.47,2.84v23.93Z"/><path class="cls-5" d="M735.9,160.56c4.8,0,9.71,1.47,9.71,1.47,.1-8.34-3.92-12.45-10.4-12.45-5,0-8.43,1.96-10.49,2.65-1.18,.49-1.76-.1-2.16-1.18l-.98-2.65c-.39-1.37,.29-1.96,1.37-2.45,2.25-.98,6.37-2.94,12.65-2.94,11.57,0,16.96,6.87,16.96,19.03v27.42c-4.09,1.04-6.22-1.46-6.57-5.06-2.35,2.45-7.16,5.98-14.22,5.98-7.94,0-14.02-5.69-14.02-14.81,0-8.63,6.47-15.01,18.14-15.01m-2.84,23.24c5.59,0,10.49-3.14,12.45-6.08v-9.22c-1.47-.79-5.1-1.77-9.61-1.77-6.28,0-10.98,3.04-10.98,8.83,0,4.61,3.14,8.24,8.14,8.24"/><path class="cls-5" d="M765.62,122.81c0-1.08,.98-2.16,2.16-2.16h5.1v66.49c0,1.18-1.08,2.16-2.16,2.16h-5.1V122.81Z"/><path class="cls-5" d="M864.09,143.01c11.87,0,20.49,8.73,20.49,20.6,0,.78-.1,1.96-.2,2.75-.1,1.18-1.08,1.96-2.06,1.96h-32.95c.19,7.55,6.57,15.49,14.81,15.49,5.98,0,9.71-2.06,12.26-3.73,1.57-1.08,2.26-1.47,3.43,.3l1.18,1.67c.88,1.37,1.27,1.87-.39,3.14-2.75,2.16-8.73,5.2-16.57,5.2-13.73,0-21.97-10.79-21.97-23.73s8.24-23.63,21.97-23.63m13.24,19.51c-.2-6.67-5.49-12.94-13.24-12.94s-13.73,5.89-14.61,12.94h27.85Z"/><path class="cls-5" d="M914.11,143.01c6.77,0,12.26,2.65,16.48,7.46,.88,1.08,.69,2.35-.39,3.23l-1.57,1.47c-1.47,1.27-2.35,.3-3.24-.69-3.14-3.53-6.77-4.9-11.38-4.9-8.63,0-15.49,7.65-15.49,17.06s6.76,17.16,15.2,17.16c6.86,0,9.81-3.53,12.36-6.47,1.27-1.47,2.55-1.08,3.83,.2l.59,.59c.98,.98,1.37,1.96,.59,3.14-3.43,5-9.51,9.12-17.06,9.12-13.43,0-22.85-10-22.85-23.63s9.81-23.73,22.95-23.73"/><path class="cls-5" d="M940.79,122.81c0-1.08,.98-2.16,2.16-2.16h5.1v28.15s5.29-5.79,14.41-5.79c11.28,0,16.38,6.96,16.38,20.2v23.93c0,1.18-1.08,2.16-2.16,2.16h-5.2v-26.09c0-8.63-2.55-13.63-9.51-13.63-8.63,0-13.93,6.47-13.93,6.47v31.08c0,1.18-1.08,2.16-2.16,2.16h-5.1V122.81Z"/><path class="cls-5" d="M842.9,120.65h-43.44v6.53h1.66c.07,0,.13,.04,.2,.04h17.06v62.07h7.45v-62.07h17.06c.07,0,.13-.03,.2-.04h1.66v-6.53h-1.86Z"/><path class="cls-4" d="M450.73,97.63c-4.4,0-7.9,2.47-7.9,5.46l2.71,26.97c.29,1.82,2.53,3.22,5.23,3.22h.01c2.7,0,4.93-1.42,5.23-3.24l2.64-26.98c0-2.99-3.51-5.44-7.92-5.44"/><path class="cls-4" d="M470.14,144.55c1.37,2.34,3.7,3.57,5.43,2.92l24.68-11.21c2.59-1.5,2.96-5.76,.75-9.58-2.21-3.82-6.09-5.62-8.68-4.12l-22,15.84c-1.42,1.17-1.52,3.82-.17,6.16"/><path class="cls-4" d="M450.73,178.29c2.71,0,4.95,1.4,5.25,3.22l2.72,26.97c0,2.99-3.5,5.46-7.91,5.47-4.4,0-7.91-2.45-7.91-5.45l2.63-26.97c.29-1.82,2.53-3.23,5.24-3.24"/><path class="cls-4" d="M470.11,167.09c1.36-2.35,3.69-3.58,5.42-2.94l24.72,11.13c2.6,1.5,2.98,5.76,.77,9.58-2.2,3.81-6.08,5.63-8.67,4.14l-22.05-15.76c-1.43-1.18-1.53-3.82-.19-6.16"/><path class="cls-4" d="M446.1,146.95l-5.09-3.34v.02l-31.72-21.12c-.65-.37-1.39-.54-2.16-.52-2.29,.05-4.9,1.78-6.55,4.65-2.2,3.82-1.83,8.09,.77,9.58l.73,.34,34.1,16.91v.02l4.09,2.05-4.08,2.06-34.79,17.37c-2.59,1.5-2.96,5.77-.75,9.58,2.21,3.82,6.09,5.61,8.68,4.12l31.68-21.22,.02,.04,5.08-3.36c6.17-4.07,6.16-13.13-.02-17.18"/></g></g></g></g></svg>